<?xml version="1.0" encoding="utf-8"?>
<!-- Generator: Adobe Illustrator 24.3.0, SVG Export Plug-In . SVG Version: 6.00 Build 0)  -->
<svg version="1.1" id="Layer_1" xmlns="http://www.w3.org/2000/svg" xmlns:xlink="http://www.w3.org/1999/xlink" x="0px" y="0px"
	 viewBox="0 0 545.51 284.65" style="enable-background:new 0 0 545.51 284.65;" xml:space="preserve">
<style type="text/css">
	.st0{fill:#E5DFD7;}
	.st1{fill:none;stroke:#FFFFFF;stroke-width:0.5;stroke-miterlimit:10;}
	.st2{clip-path:url(#SVGID_2_);fill:none;stroke:#1C244A;stroke-linecap:round;stroke-linejoin:round;stroke-miterlimit:10;}
	.st3{clip-path:url(#SVGID_2_);fill:none;stroke:#4B2F64;stroke-linecap:round;stroke-linejoin:round;stroke-miterlimit:10;}
	.st4{clip-path:url(#SVGID_2_);fill:none;stroke:#83346B;stroke-linecap:round;stroke-linejoin:round;stroke-miterlimit:10;}
	.st5{clip-path:url(#SVGID_2_);fill:none;stroke:#BF3C71;stroke-linecap:round;stroke-linejoin:round;stroke-miterlimit:10;}
	.st6{clip-path:url(#SVGID_2_);fill:none;stroke:#EF4275;stroke-linecap:round;stroke-linejoin:round;stroke-miterlimit:10;}
	.st7{fill:none;stroke:#000000;stroke-width:0.5;stroke-miterlimit:10;}
	.st8{font-family:'Helvetica';}
	.st9{font-size:12px;}
	.st10{font-size:10px;}
	.st11{fill:none;stroke:#1C244A;stroke-linecap:round;stroke-linejoin:round;stroke-miterlimit:10;}
	.st12{fill:none;stroke:#4B2F64;stroke-linecap:round;stroke-linejoin:round;stroke-miterlimit:10;}
	.st13{fill:none;stroke:#83346B;stroke-linecap:round;stroke-linejoin:round;stroke-miterlimit:10;}
	.st14{fill:none;stroke:#BF3C71;stroke-linecap:round;stroke-linejoin:round;stroke-miterlimit:10;}
	.st15{fill:none;stroke:#EF4275;stroke-linecap:round;stroke-linejoin:round;stroke-miterlimit:10;}
</style>
<g>
	<rect x="45.51" y="4.95" class="st0" width="500" height="250"/>
	<path class="st1" d="M45.51,204.95h500 M45.51,154.95h500 M45.51,104.95h500 M45.51,54.95h500"/>
	<g>
		<defs>
			<rect id="SVGID_1_" x="45.51" y="4.95" width="500" height="250"/>
		</defs>
		<clipPath id="SVGID_2_">
			<use xlink:href="#SVGID_1_"  style="overflow:visible;"/>
		</clipPath>
		<polyline class="st2" points="61.63,254.95 77.76,241.31 93.89,234.51 110.02,227.72 126.15,220.93 142.28,214.16 158.41,207.39 
			174.54,200.64 190.67,193.89 206.8,187.15 222.93,180.42 239.05,173.7 255.18,166.99 271.31,160.29 287.44,153.6 303.57,146.92 
			319.7,140.24 335.83,133.58 351.96,126.92 368.09,120.28 384.22,113.64 400.34,107.01 416.47,100.39 432.6,93.78 448.73,87.18 
			464.86,80.59 480.99,74 497.12,67.43 513.25,60.86 529.38,54.31 		"/>
		<polyline class="st3" points="61.63,254.95 77.76,248.13 93.89,239.62 110.02,231.12 126.15,223.06 142.28,215.43 158.41,208.14 
			174.54,201.06 190.67,194.13 206.8,187.28 222.93,180.5 239.05,173.74 255.18,167.01 271.31,160.3 287.44,153.61 303.57,146.92 
			319.7,140.24 335.83,133.58 351.96,126.92 368.09,120.28 384.22,113.64 400.34,107.01 416.47,100.39 432.6,93.78 448.73,87.18 
			464.86,80.59 480.99,74 497.12,67.43 513.25,60.86 529.38,54.31 		"/>
		<polyline class="st4" points="61.63,254.95 77.76,251.54 93.89,246.01 110.02,239.21 126.15,231.7 142.28,223.84 158.41,215.86 
			174.54,207.89 190.67,200 206.8,192.24 222.93,184.62 239.05,177.14 255.18,169.78 271.31,162.54 287.44,155.41 303.57,148.36 
			319.7,141.39 335.83,134.49 351.96,127.64 368.09,120.85 384.22,114.09 400.34,107.36 416.47,100.67 432.6,94 448.73,87.35 
			464.86,80.72 480.99,74.11 497.12,67.51 513.25,60.92 529.38,54.35 		"/>
		<polyline class="st5" points="61.63,254.95 77.76,253.24 93.89,250.16 110.02,245.96 126.15,240.87 142.28,235.08 158.41,228.74 
			174.54,221.96 190.67,214.87 206.8,207.54 222.93,200.03 239.05,192.41 255.18,184.71 271.31,176.97 287.44,169.23 303.57,161.49 
			319.7,153.79 335.83,146.12 351.96,138.5 368.09,130.93 384.22,123.42 400.34,115.97 416.47,108.58 432.6,101.25 448.73,93.98 
			464.86,86.78 480.99,79.62 497.12,72.52 513.25,65.48 529.38,58.48 		"/>
		<polyline class="st6" points="61.63,254.95 77.76,254.1 93.89,252.47 110.02,250.15 126.15,247.21 142.28,243.7 158.41,239.68 
			174.54,235.21 190.67,230.32 206.8,225.08 222.93,219.51 239.05,213.65 255.18,207.54 271.31,201.2 287.44,194.66 303.57,187.95 
			319.7,181.09 335.83,174.09 351.96,166.99 368.09,159.79 384.22,152.51 400.34,145.16 416.47,137.75 432.6,130.31 448.73,122.83 
			464.86,115.32 480.99,107.79 497.12,100.26 513.25,92.72 529.38,85.18 		"/>
	</g>
	<path class="st7" d="M45.51,4.95v250h500 M61.63,254.95v3 M77.76,254.95v3 M93.89,254.95v3 M110.02,254.95v3 M126.15,254.95v3
		 M142.28,254.95v3 M158.41,254.95v3 M174.54,254.95v3 M190.67,254.95v3 M206.8,254.95v3 M222.93,254.95v3 M239.05,254.95v3
		 M255.18,254.95v3 M271.31,254.95v3 M287.44,254.95v3 M303.57,254.95v3 M319.7,254.95v3 M335.83,254.95v3 M351.96,254.95v3
		 M368.09,254.95v3 M384.22,254.95v3 M400.34,254.95v3 M416.47,254.95v3 M432.6,254.95v3 M448.73,254.95v3 M464.86,254.95v3
		 M480.99,254.95v3 M497.12,254.95v3 M513.25,254.95v3 M529.38,254.95v3 M45.51,254.95h-3 M45.51,204.95h-3 M45.51,154.95h-3
		 M45.51,104.95h-3 M45.51,54.95h-3 M45.51,5.2h-3"/>
	<text transform="matrix(1 0 0 1 200.1229 269.4478)" class="st8 st9">10</text>
	<text transform="matrix(1 0 0 1 58.2977 269.4478)" class="st8 st9">1</text>
	<text transform="matrix(1 0 0 1 74.4268 269.4478)" class="st8 st9">2</text>
	<text transform="matrix(1 0 0 1 90.556 269.4478)" class="st8 st9">3</text>
	<text transform="matrix(1 0 0 1 106.6851 269.4478)" class="st8 st9">4</text>
	<text transform="matrix(1 0 0 1 122.8143 269.4478)" class="st8 st9">5</text>
	<text transform="matrix(1 0 0 1 138.9435 269.4478)" class="st8 st9">6</text>
	<text transform="matrix(1 0 0 1 155.0726 269.4478)" class="st8 st9">7</text>
	<text transform="matrix(1 0 0 1 171.2018 269.4478)" class="st8 st9">8</text>
	<text transform="matrix(1 0 0 1 187.3309 269.4478)" class="st8 st9">9</text>
	<text transform="matrix(1 0 0 1 216.2557 269.4478)" class="st8 st9">11</text>
	<text transform="matrix(1 0 0 1 232.3807 269.4478)" class="st8 st9">12</text>
	<text transform="matrix(1 0 0 1 248.5135 269.4478)" class="st8 st9">13</text>
	<text transform="matrix(1 0 0 1 264.6385 269.4478)" class="st8 st9">14</text>
	<text transform="matrix(1 0 0 1 280.7713 269.4478)" class="st8 st9">15</text>
	<text transform="matrix(1 0 0 1 296.8963 269.4478)" class="st8 st9">16</text>
	<text transform="matrix(1 0 0 1 313.0291 269.4478)" class="st8 st9">17</text>
	<text transform="matrix(1 0 0 1 329.162 269.4478)" class="st8 st9">18</text>
	<text transform="matrix(1 0 0 1 345.287 269.4478)" class="st8 st9">19</text>
	<text transform="matrix(1 0 0 1 361.412 269.4478)" class="st8 st9">20</text>
	<text transform="matrix(1 0 0 1 377.5448 269.4478)" class="st8 st9">21</text>
	<text transform="matrix(1 0 0 1 393.6776 269.4478)" class="st8 st9">22</text>
	<text transform="matrix(1 0 0 1 409.8026 269.4478)" class="st8 st9">23</text>
	<text transform="matrix(1 0 0 1 425.9276 269.4478)" class="st8 st9">24</text>
	<text transform="matrix(1 0 0 1 442.0604 269.4478)" class="st8 st9">25</text>
	<text transform="matrix(1 0 0 1 458.1932 269.4478)" class="st8 st9">26</text>
	<text transform="matrix(1 0 0 1 474.3182 269.4478)" class="st8 st9">27</text>
	<text transform="matrix(1 0 0 1 490.4432 269.4478)" class="st8 st9">28</text>
	<text transform="matrix(1 0 0 1 506.576 269.4478)" class="st8 st9">29</text>
	<text transform="matrix(1 0 0 1 522.7088 269.4478)" class="st8 st9">30</text>
	<text transform="matrix(1 0 0 1 34.4354 259.9478)" class="st8 st9">0</text>
	<text transform="matrix(1 0 0 1 17.7557 209.9478)" class="st8 st9">0.01</text>
	<text transform="matrix(1 0 0 1 17.7557 159.9478)" class="st8 st9">0.02</text>
	<text transform="matrix(1 0 0 1 17.7557 109.9478)" class="st8 st9">0.03</text>
	<text transform="matrix(1 0 0 1 17.7557 59.9478)" class="st8 st9">0.04</text>
	<text transform="matrix(1 0 0 1 17.7557 9.9478)" class="st8 st9">0.05</text>
	<text transform="matrix(1 0 0 1 261.1541 282.9478)" class="st8 st9">size of group</text>
	<text transform="matrix(0 -1 1 0 10.5057 157.2916)" class="st8 st9">probability</text>
</g>
<text transform="matrix(1 0 0 1 66.9764 16.2559)"><tspan x="0" y="0" class="st8 st9">transmission probability</tspan><tspan x="0" y="12" class="st8 st10">         1</tspan><tspan x="0" y="24" class="st8 st10">      1/2</tspan><tspan x="0" y="36" class="st8 st10">      1/4</tspan><tspan x="0" y="48" class="st8 st10">      1/8</tspan><tspan x="0" y="60" class="st8 st10">    1/16</tspan></text>
<line class="st11" x1="108.53" y1="25.26" x2="166.21" y2="25.26"/>
<line class="st12" x1="108.53" y1="37.26" x2="166.21" y2="37.26"/>
<line class="st13" x1="108.53" y1="49.26" x2="166.21" y2="49.26"/>
<line class="st14" x1="108.53" y1="61.45" x2="166.21" y2="61.45"/>
<line class="st15" x1="108.53" y1="73.26" x2="166.21" y2="73.26"/>
</svg>
